<?xml version="1.0" encoding="UTF-8" standalone="no"?>
<svg
   version="1.1"
   viewBox="0 0 594 594"
   id="svg15"
   sodipodi:docname="wsp_wait.svg"
   width="594"
   height="594"
   inkscape:version="1.3 (0e150ed6c4, 2023-07-21)"
   inkscape:export-filename="wsp_logo.png"
   inkscape:export-xdpi="96"
   inkscape:export-ydpi="96"
   xml:space="preserve"
   xmlns:inkscape="http://www.inkscape.org/namespaces/inkscape"
   xmlns:sodipodi="http://sodipodi.sourceforge.net/DTD/sodipodi-0.dtd"
   xmlns="http://www.w3.org/2000/svg"
   xmlns:svg="http://www.w3.org/2000/svg"><defs
     id="defs15" /><sodipodi:namedview
     id="namedview15"
     pagecolor="#ffffff"
     bordercolor="#000000"
     borderopacity="0.25"
     inkscape:showpageshadow="2"
     inkscape:pageopacity="0.0"
     inkscape:pagecheckerboard="0"
     inkscape:deskcolor="#d1d1d1"
     inkscape:zoom="1.0730898"
     inkscape:cx="295.87459"
     inkscape:cy="215.73218"
     inkscape:window-width="1920"
     inkscape:window-height="991"
     inkscape:window-x="-9"
     inkscape:window-y="-9"
     inkscape:window-maximized="1"
     inkscape:current-layer="svg15" /><path
     fill="#000000"
     d="m 551.23786,108.65609 q 1.16106,5.57796 2.07189,11.18596 0.86078,5.33762 0.86078,10.60514 0.1101,158.86669 -0.16015,318.49447 c -0.01,7.23032 -0.49044,14.18024 -2.0919,21.08009 q -7.62693,32.81682 -31.93903,58.27315 c -16.28481,17.05433 -37.71429,27.61941 -60.86533,32.26604 q -7.32666,1.4721 -14.24295,1.4721 -142.12921,0.02 -282.00637,0.03 -14.46314,0 -29.54686,-0.10014 -12.59144,-0.0901 -19.92811,-1.34191 -12.41128,-2.11302 -21.649679,-5.68812 -20.488625,-7.94133 -38.014558,-24.12442 C 33.727414,511.05029 19.544521,483.77137 17.272455,455.44094 q -0.290264,-3.68526 -0.270246,-8.92273 0.540492,-156.86384 0.09008,-312.29564 -0.03003,-10.34476 1.141038,-18.42629 5.55505,-38.054307 30.267515,-68.427649 6.115559,-7.520732 10.449499,-11.526448 22.150136,-20.409123 50.235669,-29.2016691 10.74977,-3.3648014 21.41947,-4.6165877 6.75614,-0.7911289 19.74795,-0.7911289 130.85896,-0.060086 267.79344,-0.2303286 13.22202,-0.0200286 19.69791,0.6509288 20.10828,2.0929866 38.25478,11.0758045 8.60782,4.266087 17.23567,9.52359 7.74704,4.726745 15.87443,12.157348 32.67971,29.872627 42.0282,74.24595 z M 79.298841,442.88302 q 19.347589,22.16162 47.853499,28.42055 c 6.51592,1.42203 13.63239,1.30186 20.31847,1.29185 q 139.00637,-0.37053 274.95996,-0.0501 11.63057,0.03 18.0364,-1.06152 9.31847,-1.58226 18.24658,-5.51787 25.6233,-11.29612 40.63694,-34.94987 c 7.3667,-11.61658 11.97089,-23.72386 11.97089,-37.41339 q -0.04,-110.40755 0.0701,-220.8151 c 0.02,-19.60798 -0.41037,-39.36617 -0.01,-59.08431 q 0.14013,-6.91987 -2.3121,-17.795395 -2.19199,-8.101561 -5.44495,-14.470649 -13.8626,-27.208826 -41.80801,-40.658018 -16.505,-7.941332 -33.49044,-7.941332 -133.47134,0.01001 -278.16287,0.01001 -12.85168,0 -20.0182,0.971387 C 99.026775,38.055341 72.862991,61.578908 62.633691,91.331364 q -3.262966,9.483536 -3.573248,21.620856 -0.310282,12.28754 -0.300273,27.62943 0.1101,111.52915 -0.06005,247.50317 -0.01001,9.82402 1.030937,15.6223 c 2.592356,14.55076 9.808917,28.07005 19.567788,39.1759 z"
     id="path10"
     style="display:inline;stroke-width:1.00117" /><path
     fill="#ffffff"
     d="m 509.06953,95.907895 c -0.31362,1.989505 -0.26024,4.162605 0.16015,6.519305 0.2936,1.64235 0.05,3.15784 -0.73067,4.54649 -0.87413,1.5422 -1.41462,2.72055 -1.62147,3.53504 -1.92842,7.57748 -4.63088,14.54075 -8.10737,20.88981 -2.05521,3.7587 -4.09706,7.48402 -6.12557,11.17595 -1.06097,1.92274 -1.2111,4.31616 -1.22111,6.43919 -0.22687,74.30603 -0.30695,153.69265 -0.24022,238.15984 0.01,5.97854 -0.40036,11.68668 -1.7616,17.5851 -2.46224,10.6552 -8.43767,18.97708 -16.63512,26.57792 -8.74795,8.1049 -18.85714,13.44252 -30.32757,16.01285 -4.07704,0.91464 -10.65302,1.38197 -19.72794,1.402 -86.4686,0.20029 -173.56778,0.11016 -261.86805,0.18026 -7.17319,0.007 -14.75676,-0.12352 -22.75069,-0.39056 -14.8535,-0.50739 -27.99211,-5.78492 -39.415825,-15.83259 -4.931149,-4.33953 -9.215044,-9.29326 -12.851683,-14.86121 -3.816803,-5.84167 -6.255687,-12.49783 -7.316651,-19.96849 -0.09342,-0.67429 -0.273583,-0.69766 -0.540492,-0.0701 -3.930239,9.23985 -5.678495,18.94036 -5.244768,29.10153 0.05338,1.36862 0.874126,3.86552 2.462239,7.49069 0.306945,0.701 1.131028,2.01621 2.472247,3.94563 1.034274,1.48211 1.574765,2.99427 1.621474,4.53647 -9.758871,-11.10585 -16.975432,-24.62514 -19.567788,-39.1759 -0.693965,-3.86552 -1.03761,-9.07295 -1.030937,-15.6223 0.113436,-90.64935 0.133453,-173.1504 0.06005,-247.50317 -0.0067,-10.22793 0.09342,-19.43774 0.300273,-27.62943 0.206855,-8.09155 1.397937,-15.298499 3.573248,-21.620856 10.229304,-29.752456 36.393088,-53.276023 67.511373,-57.512067 4.77768,-0.647591 11.45041,-0.971387 20.0182,-0.971387 96.46102,0 189.18198,-0.0033 278.16287,-0.01001 11.32363,0 22.48711,2.647111 33.49044,7.941332 18.63027,8.966128 32.56628,22.518801 41.80801,40.658018 2.16864,4.246059 3.98362,9.069608 5.44495,14.470649 z"
     id="path11"
     style="display:inline;fill:#f9f167;fill-opacity:1;stroke-width:1.00117"
     sodipodi:nodetypes="scccccccccccccccccccccccccccscccss" /><path
     fill="#dadee3"
     d="m 509.06953,95.907895 q 2.45223,10.875525 2.3121,17.795395 c -0.40036,19.71814 0.03,39.47633 0.01,59.08431 q -0.1101,110.40755 -0.0701,220.8151 c 0,13.68953 -4.60419,25.79681 -11.97089,37.41339 q -15.01364,23.65375 -40.63694,34.94987 -8.92811,3.93561 -18.24658,5.51787 -6.40583,1.09156 -18.0364,1.06152 -135.95359,-0.32046 -274.95996,0.0501 c -6.68608,0.01 -13.80255,0.13018 -20.31847,-1.29185 q -28.50591,-6.25893 -47.853499,-28.42055 -0.07006,-2.3133 -1.621474,-4.53647 -2.011829,-2.89413 -2.472247,-3.94563 -2.382166,-5.43776 -2.462239,-7.49069 -0.650591,-15.24175 5.244768,-29.10153 0.400364,-0.94134 0.540492,0.0701 1.591446,11.20599 7.316651,19.96849 5.454959,8.35192 12.851683,14.86121 17.135575,15.07151 39.415825,15.83259 11.9909,0.40057 22.75069,0.39056 c 88.30027,-0.0701 175.39945,0.02 261.86805,-0.18026 q 13.61238,-0.03 19.72794,-1.402 17.20564,-3.8555 30.32757,-16.01285 c 8.19745,-7.60084 14.17288,-15.92272 16.63512,-26.57792 1.36124,-5.89842 1.77161,-11.60656 1.7616,-17.5851 q -0.10009,-126.70079 0.24022,-238.15984 c 0.01,-2.12303 0.16014,-4.51645 1.22111,-6.43919 q 3.04276,-5.5379 6.12557,-11.17595 5.21474,-9.52359 8.10737,-20.88981 0.31028,-1.22174 1.62147,-3.53504 1.17107,-2.08297 0.73067,-4.54649 -0.63058,-3.535047 -0.16015,-6.519305 z"
     id="path13"
     style="display:inline;stroke-width:1.00117;fill:#c1b809;fill-opacity:1" /><path
     fill="#dadee3"
     d="m 53.725593,530.80849 q 17.525933,16.18309 38.014558,24.12442 9.238399,3.5751 21.649679,5.68812 7.33667,1.25178 19.92811,1.34191 15.08372,0.10014 29.54686,0.10014 139.87716,-0.01 282.00637,-0.03 6.91629,0 14.24295,-1.4721 c 23.15104,-4.64663 44.58052,-15.21171 60.86533,-32.26604 q 24.3121,-25.45633 31.93903,-58.27315 c 1.60146,-6.89985 2.0819,-13.84977 2.0919,-21.08009 q 0.27025,-159.62778 0.16015,-318.49447 0,-5.26752 -0.86078,-10.60514 -0.91083,-5.608 -2.07189,-11.18596 0.85078,-1.59227 0.89081,0.95136 c 0.01,0.52074 0.25023,0.94134 0.64059,1.29184 q 0.10009,0.0901 0.06,-0.0401 -0.05,-0.23032 0.14013,-0.40057 0.46042,-0.40057 0.58053,0.20029 l 0.34031,1.77253 q 0.10009,0.52074 0.54049,0.80114 1.42129,0.92132 2.43221,2.4535 c 5.90537,9.00285 11.47043,19.03717 14.55323,29.0815 q 5.42493,17.67522 5.44495,31.27463 0.21019,147.28016 0.10009,281.14118 -0.01,13.62944 -0.61056,20.01856 c -3.12284,33.0071 -17.34576,63.02994 -42.33849,84.96124 q -28.69608,25.18594 -66.14012,29.77248 -7.65696,0.94135 -19.99818,0.9814 c -65.05914,0.22032 -129.798,-0.0801 -192.92538,-0.02 q -44.92084,0.0501 -86.32848,-0.03 -11.7707,-0.03 -19.55778,-0.73104 -12.30119,-1.1216 -23.22111,-4.37625 -9.68881,-2.88411 -20.61874,-7.97137 -14.653323,-6.81973 -28.195634,-18.64661 c -3.22293,-2.81402 -5.795269,-5.96852 -8.707916,-8.92273 -3.463149,-3.505 -6.726115,-7.76108 -9.528663,-11.92702 -0.860782,-1.29185 -0.9909,-2.32332 -2.181983,-3.53505 q -2.56233,-2.60371 -2.882621,-5.94848 z"
     id="path14"
     style="display:inline;stroke-width:1.00117" /><path
     style="display:none;fill:#ffffff;stroke:#000000;stroke-width:1.001"
     d="M 514.96524,472.60198 C 438.46149,461.31842 361.99797,448.23175 285.60166,435.80631 L 285.26764,252.72493 58.700021,32.847876 Z"
     id="path3"
     sodipodi:nodetypes="ccccc" /><path
     d="m 222.09399,383.5062 h 130.6 v -48.975 q 0,-26.93625 -19.18187,-46.11813 -19.18188,-19.18187 -46.11813,-19.18187 -26.93625,0 -46.11812,19.18187 -19.18188,19.18188 -19.18188,46.11813 z m -65.3,32.65 v -32.65 h 32.65 v -48.975 q 0,-24.89562 11.63156,-46.73031 11.63157,-21.83469 32.44594,-34.89469 -20.81437,-13.06 -32.44594,-34.89469 -11.63156,-21.83468 -11.63156,-46.73031 v -48.975 h -32.65 V 89.656201 h 261.2 V 122.3062 h -32.65 v 48.975 q 0,24.89563 -11.63156,46.73031 -11.63156,21.83469 -32.44594,34.89469 20.81438,13.06 32.44594,34.89469 11.63156,21.83468 11.63156,46.73031 v 48.975 h 32.65 v 32.65 z"
     id="path1-7"
     style="display:inline;stroke-width:0.408125;fill:#000000;fill-opacity:1" /></svg>
