<?xml version="1.0" encoding="UTF-8" standalone="no"?>
<svg
   version="1.1"
   viewBox="0 0 560 559.99994"
   id="svg15"
   sodipodi:docname="wsp_logo.svg"
   width="560"
   height="559.99994"
   inkscape:version="1.3 (0e150ed6c4, 2023-07-21)"
   inkscape:export-filename="wsp_logo.png"
   inkscape:export-xdpi="96"
   inkscape:export-ydpi="96"
   xmlns:inkscape="http://www.inkscape.org/namespaces/inkscape"
   xmlns:sodipodi="http://sodipodi.sourceforge.net/DTD/sodipodi-0.dtd"
   xmlns="http://www.w3.org/2000/svg"
   xmlns:svg="http://www.w3.org/2000/svg">
  <defs
     id="defs15" />
  <sodipodi:namedview
     id="namedview15"
     pagecolor="#ffffff"
     bordercolor="#000000"
     borderopacity="0.25"
     inkscape:showpageshadow="2"
     inkscape:pageopacity="0.0"
     inkscape:pagecheckerboard="0"
     inkscape:deskcolor="#d1d1d1"
     inkscape:zoom="0.75878906"
     inkscape:cx="280.05148"
     inkscape:cy="270.82626"
     inkscape:window-width="1920"
     inkscape:window-height="991"
     inkscape:window-x="-9"
     inkscape:window-y="-9"
     inkscape:window-maximized="1"
     inkscape:current-layer="svg15" />
  <path
     fill="#000000"
     d="m 556.90966,107.45057 q 1.21032,5.56741 2.1598,11.1648 0.89732,5.32753 0.89732,10.58508 0.11477,158.5662 -0.16694,317.89205 c -0.0104,7.21663 -0.51126,14.15341 -2.18069,21.04021 q -7.95061,32.75475 -33.2945,58.16292 c -16.97592,17.02208 -39.31486,27.56717 -63.44842,32.20501 q -7.6376,1.46932 -14.84742,1.46932 -148.16108,0.02 -293.97454,0.03 -15.07696,0 -30.80081,-0.1 -13.12583,-0.0899 -20.77386,-1.33937 -12.938006,-2.10908 -22.568477,-5.67741 -21.358151,-7.92631 -39.627874,-24.07879 C 17.436359,509.08364 2.6515516,481.85632 0.2830611,453.57948 Q -0.01952143,449.90119 0.0013463,444.67362 0.5647757,288.10649 0.0952512,132.9687 0.0639496,122.6435 1.2847135,114.57726 7.0755165,76.59493 32.836765,46.27904 39.211864,38.772534 43.729734,34.774394 66.819909,14.403875 96.097375,5.6279603 107.30336,2.2695235 118.42587,1.0201049 125.46874,0.23047243 139.01191,0.23047243 275.42445,0.17050043 418.17036,5.7943499e-4 431.95352,-0.01941117 438.70423,0.65027713 459.66589,2.7393048 478.58252,11.705132 q 8.97314,4.258017 17.96714,9.505576 8.07582,4.717803 16.54813,12.134352 34.06662,29.816123 43.81187,74.10551 z M 64.941811,441.04531 q 20.168689,22.11971 49.884369,28.3668 c 6.79246,1.41934 14.21094,1.29939 21.18078,1.2894 q 144.90572,-0.36983 286.6291,-0.05 12.12416,0.0299 18.80185,-1.05951 9.71394,-1.57926 19.02097,-5.50743 26.71072,-11.27476 42.36154,-34.88376 c 7.67933,-11.59461 12.47892,-23.67899 12.47892,-37.34263 q -0.0417,-110.19871 0.0731,-220.39741 c 0.0208,-19.57089 -0.42779,-39.29172 -0.0104,-58.97257 q 0.14608,-6.90678 -2.41022,-17.761729 -2.28502,-8.086236 -5.67603,-14.443278 -14.45092,-27.15736 -43.58231,-40.581112 -17.20547,-7.926311 -34.91177,-7.926311 -139.13577,0.01 -289.96794,0.01 -13.39709,0 -20.86776,0.969549 C 85.506987,36.983366 58.232827,60.462438 47.569401,90.158617 q -3.401444,9.465593 -3.724894,21.579963 -0.32345,12.26429 -0.313017,27.57716 0.114773,111.3182 -0.0626,247.03503 -0.01043,9.80544 1.074689,15.59274 c 2.702374,14.52324 10.225202,28.01696 20.398234,39.1018 z"
     id="path10"
     style="display:inline;stroke-width:1.02122" />
  <path
     fill="#ffffff"
     d="m 512.95172,94.726491 c -0.32693,1.985743 -0.27129,4.154732 0.16694,6.506969 0.30606,1.63924 0.0522,3.15187 -0.76168,4.53789 -0.91122,1.53929 -1.47465,2.71541 -1.69028,3.52837 -2.01026,7.56315 -4.82741,14.51324 -8.45144,20.85029 -2.14243,3.75159 -4.27094,7.46985 -6.38554,11.1548 -1.10599,1.91912 -1.2625,4.308 -1.27293,6.42701 -0.2365,74.16549 -0.31997,153.40194 -0.25042,237.70937 0.0104,5.96723 -0.41735,11.66457 -1.83636,17.55183 -2.56673,10.63505 -8.79576,18.94119 -17.3411,26.52766 -9.11921,8.08956 -19.65743,13.41708 -31.61466,15.98255 -4.25007,0.91291 -11.10513,1.37937 -20.56518,1.39936 -90.13828,0.1999 -180.9339,0.10994 -272.98158,0.17991 -7.47761,0.007 -15.38302,-0.12327 -23.71621,-0.38981 -15.48387,-0.50643 -29.180077,-5.77399 -41.088611,-15.80266 -5.140425,-4.33131 -9.606125,-9.27568 -13.397101,-14.83309 -3.978786,-5.83062 -6.521174,-12.47419 -7.627165,-19.93072 -0.09738,-0.67302 -0.285194,-0.69635 -0.563431,-0.07 -4.097036,9.22237 -5.919487,18.90453 -5.467353,29.04648 0.05565,1.36603 0.911225,3.85821 2.566735,7.47652 0.319972,0.69967 1.179028,2.0124 2.577168,3.93817 1.078168,1.47931 1.641598,2.98861 1.690289,4.52789 -10.173032,-11.08481 -17.69586,-24.57853 -20.398234,-39.10177 -0.723416,-3.8582 -1.081646,-9.05578 -1.074689,-15.59274 0.11825,-90.47789 0.139117,-172.8229 0.0626,-247.03503 -0.007,-10.20858 0.09738,-19.40097 0.313017,-27.57716 0.215633,-8.07625 1.457265,-15.269568 3.724894,-21.579963 10.663428,-29.696179 37.937588,-53.175251 70.376511,-57.403283 4.98044,-0.646366 11.93636,-0.969549 20.86776,-0.969549 100.55478,0 197.21076,-0.0033 289.96794,-0.01 11.80419,0 23.44145,2.642104 34.91177,7.926311 19.42092,8.949168 33.94836,22.476205 43.58231,40.581112 2.26067,4.238028 4.15268,9.052454 5.67603,14.443278 z"
     id="path11"
     style="display:inline;stroke-width:1.02122"
     sodipodi:nodetypes="scccccccccccccccccccccccccccscccss" />
  <path
     fill="#000000"
     d="m 252.86196,138.00636 q -14.86713,0.10994 -29.8141,-0.02 -0.56911,-0.01 -0.60902,-0.56974 -0.62906,-9.66549 1.51763,-17.84169 c 4.69277,-17.81171 17.98233,-33.124587 35.57522,-39.521609 21.43696,-7.806367 44.98069,-1.609252 60.68652,14.823101 q 16.51454,17.291958 15.03683,42.500228 -0.0301,0.54974 -0.58911,0.54974 -14.64742,0.04 -30.46307,0.10995 -6.41013,0.0299 -10.11442,5.08763 c -3.59444,4.91771 -0.95851,11.19479 3.94393,14.03347 q 2.48616,1.43932 6.10061,1.42933 15.85557,-0.0899 30.5829,0.0799 0.5691,0.01 0.5691,0.58973 l -0.0301,22.22966 q 0,0.53974 -0.54917,0.53974 -16.68431,-0.17991 -32.00068,-0.28986 c -10.35408,-0.0799 -14.6874,14.14342 -5.04224,19.31101 q 2.2066,1.17945 4.93241,1.15946 15.74573,-0.1 32.10055,-0.06 a 0.42933868,0.42979996 0 0 1 0.42933,0.4298 q -0.0601,11.88447 -0.0301,23.57903 c 0.0902,39.67153 -38.59058,66.77891 -75.80326,52.71546 q -21.74647,-8.21617 -31.93081,-29.93606 -4.70273,-10.02534 -4.75269,-21.5 -0.05,-12.92399 -0.0702,-24.83844 a 0.32949248,0.32984648 0 0 1 0.32952,-0.32984 q 13.77876,-0.14994 29.50456,-0.04 4.33333,0.03 6.74958,-1.20944 c 9.35561,-4.80775 6.2504,-19.24104 -4.36325,-19.31101 q -15.76574,-0.0999 -31.99072,-0.17991 -0.58912,0 -0.57913,-0.57973 l 0.11981,-22.01975 a 0.46927717,0.46978135 0 0 1 0.46927,-0.46979 q 15.85561,0.02 32.02071,0.0799 c 7.20888,0.02 12.26111,-7.40656 9.03606,-14.04347 -2.16665,-4.46792 -6.15051,-6.52696 -10.97308,-6.48697 z"
     id="path12"
     style="display:inline;stroke-width:0.998994" />
  <path
     fill="#dadee3"
     d="m 512.95172,94.726491 q 2.5563,10.854949 2.41022,17.761729 c -0.41735,19.68085 0.0313,39.40168 0.0104,58.97257 q -0.11477,110.1987 -0.0731,220.39741 c 0,13.66364 -4.79959,25.74802 -12.47892,37.34263 q -15.65082,23.609 -42.36155,34.88376 -9.30702,3.92817 -19.02096,5.50743 -6.67769,1.0895 -18.80186,1.05951 -141.72338,-0.31985 -286.6291,0.05 c -6.96983,0.01 -14.38831,0.12994 -21.18077,-1.2894 q -29.715682,-6.24709 -49.884371,-28.3668 -0.07303,-2.30892 -1.690289,-4.52789 -2.09721,-2.88866 -2.577168,-3.93817 -2.483263,-5.42747 -2.566735,-7.47652 -0.678201,-15.21292 5.467353,-29.04648 0.417355,-0.93956 0.56343,0.07 1.658986,11.18479 7.627166,19.93072 5.686464,8.33612 13.397101,14.83309 17.862803,15.04301 41.088603,15.80266 12.4998,0.39981 23.71622,0.38981 c 92.04768,-0.07 182.8433,0.02 272.98158,-0.17991 q 14.19008,-0.03 20.56518,-1.39936 17.93584,-3.84821 31.61465,-15.98255 c 8.54535,-7.58647 14.77437,-15.89261 17.34111,-26.52766 1.41901,-5.88726 1.8468,-11.5846 1.83636,-17.55183 q -0.10434,-126.46114 0.25042,-237.70937 c 0.0104,-2.11901 0.16694,-4.50789 1.27293,-6.42701 q 3.1719,-5.52742 6.38553,-11.1548 5.43606,-9.50557 8.45145,-20.85029 0.32344,-1.21944 1.69028,-3.52837 1.22077,-2.07903 0.76168,-4.53789 -0.65734,-3.528355 -0.16695,-6.506969 z"
     id="path13"
     style="display:inline;stroke-width:1.02122" />
  <path
     fill="#000000"
     d="m 264.00477,372.2973 0.0401,-35.90328 q 0,-1.10948 -1.11829,-1.0695 -2.04684,0.07 -4.18356,-0.4398 c -14.17816,-3.39842 -27.98691,-8.47605 -39.96841,-16.50232 -25.00154,-16.75221 -43.09363,-42.58018 -49.31405,-72.26636 q -1.63753,-7.81637 -1.6275,-16.64226 0.0301,-18.62133 0,-36.39306 c -0.01,-9.55556 5.31182,-18.29149 15.89548,-17.84169 6.33025,0.25987 11.53225,5.3575 13.34945,11.17479 q 0.96854,3.07856 0.88862,8.28615 -0.26955,18.58135 -0.25959,33.9342 c 0.0101,11.84449 4.1137,24.62854 9.67511,35.28358 9.96466,19.05114 28.47613,33.40446 48.66504,39.87144 10.384,3.31846 21.78646,3.43841 32.8494,2.5988 18.03223,-1.36937 35.3156,-10.78498 47.80637,-23.82891 q 17.31334,-18.08159 21.96617,-41.61064 1.4877,-7.48651 1.35789,-17.05206 -0.21967,-17.4119 0.0401,-33.06461 c 0.29952,-17.65179 22.55524,-21.79986 28.66582,-5.41749 q 1.28803,3.4484 1.25808,8.25617 -0.0902,16.55229 0.0902,31.88515 0.19969,16.41237 -4.15361,30.57578 c -4.14361,13.50371 -10.0645,26.34773 -18.94083,37.34261 q -13.54911,16.7822 -30.65278,27.05741 c -13.08985,7.85635 -26.45925,12.34426 -41.21651,14.52324 q -0.75881,0.10995 -0.75881,0.88959 l -0.0301,36.36307 a 0.54915412,0.54974414 0 0 0 0.54915,0.54975 q 22.63515,-0.05 44.15201,0.05 7.16896,0.0299 11.36248,5.88725 c 5.54147,7.72641 3.59448,16.27243 -3.6444,21.72989 -2.14665,1.60925 -4.59288,2.05904 -7.20888,2.05904 q -61.0959,0.01 -121.63261,0.01 -4.05381,0 -8.15747,-3.06857 c -7.17894,-5.3775 -7.55836,-14.59321 -2.04686,-21.23012 3.95392,-4.75779 8.67666,-5.45746 14.56757,-5.42748 q 20.53839,0.0999 41.12668,0.04 0.60904,-0.01 0.60904,-0.60973 z"
     id="path15"
     style="display:inline;stroke-width:0.998994" />
</svg>
