<?xml version="1.0" encoding="UTF-8" standalone="no"?>
<svg
   version="1.1"
   viewBox="0 0 594 594"
   id="svg15"
   sodipodi:docname="wsp_record.svg"
   width="594"
   height="594"
   inkscape:version="1.3 (0e150ed6c4, 2023-07-21)"
   inkscape:export-filename="wsp_logo.png"
   inkscape:export-xdpi="96"
   inkscape:export-ydpi="96"
   xml:space="preserve"
   xmlns:inkscape="http://www.inkscape.org/namespaces/inkscape"
   xmlns:sodipodi="http://sodipodi.sourceforge.net/DTD/sodipodi-0.dtd"
   xmlns="http://www.w3.org/2000/svg"
   xmlns:svg="http://www.w3.org/2000/svg"><defs
     id="defs15" /><sodipodi:namedview
     id="namedview15"
     pagecolor="#ffffff"
     bordercolor="#000000"
     borderopacity="0.25"
     inkscape:showpageshadow="2"
     inkscape:pageopacity="0.0"
     inkscape:pagecheckerboard="0"
     inkscape:deskcolor="#d1d1d1"
     inkscape:zoom="1.0730898"
     inkscape:cx="346.19656"
     inkscape:cy="240.89317"
     inkscape:window-width="1920"
     inkscape:window-height="991"
     inkscape:window-x="-9"
     inkscape:window-y="-9"
     inkscape:window-maximized="1"
     inkscape:current-layer="svg15" /><path
     fill="#000000"
     d="m 551.23786,108.65609 q 1.16106,5.57796 2.07189,11.18596 0.86078,5.33762 0.86078,10.60514 0.1101,158.86669 -0.16015,318.49447 c -0.01,7.23032 -0.49044,14.18024 -2.0919,21.08009 q -7.62693,32.81682 -31.93903,58.27315 c -16.28481,17.05433 -37.71429,27.61941 -60.86533,32.26604 q -7.32666,1.4721 -14.24295,1.4721 -142.12921,0.02 -282.00637,0.03 -14.46314,0 -29.54686,-0.10014 -12.59144,-0.0901 -19.92811,-1.34191 -12.41128,-2.11302 -21.649679,-5.68812 -20.488625,-7.94133 -38.014558,-24.12442 C 33.727414,511.05029 19.544521,483.77137 17.272455,455.44094 q -0.290264,-3.68526 -0.270246,-8.92273 0.540492,-156.86384 0.09008,-312.29564 -0.03003,-10.34476 1.141038,-18.42629 5.55505,-38.054307 30.267515,-68.427649 6.115559,-7.520732 10.449499,-11.526448 22.150136,-20.409123 50.235669,-29.2016691 10.74977,-3.3648014 21.41947,-4.6165877 6.75614,-0.7911289 19.74795,-0.7911289 130.85896,-0.060086 267.79344,-0.2303286 13.22202,-0.0200286 19.69791,0.6509288 20.10828,2.0929866 38.25478,11.0758045 8.60782,4.266087 17.23567,9.52359 7.74704,4.726745 15.87443,12.157348 32.67971,29.872627 42.0282,74.24595 z M 79.298841,442.88302 q 19.347589,22.16162 47.853499,28.42055 c 6.51592,1.42203 13.63239,1.30186 20.31847,1.29185 q 139.00637,-0.37053 274.95996,-0.0501 11.63057,0.03 18.0364,-1.06152 9.31847,-1.58226 18.24658,-5.51787 25.6233,-11.29612 40.63694,-34.94987 c 7.3667,-11.61658 11.97089,-23.72386 11.97089,-37.41339 q -0.04,-110.40755 0.0701,-220.8151 c 0.02,-19.60798 -0.41037,-39.36617 -0.01,-59.08431 q 0.14013,-6.91987 -2.3121,-17.795395 -2.19199,-8.101561 -5.44495,-14.470649 -13.8626,-27.208826 -41.80801,-40.658018 -16.505,-7.941332 -33.49044,-7.941332 -133.47134,0.01001 -278.16287,0.01001 -12.85168,0 -20.0182,0.971387 C 99.026775,38.055341 72.862991,61.578908 62.633691,91.331364 q -3.262966,9.483536 -3.573248,21.620856 -0.310282,12.28754 -0.300273,27.62943 0.1101,111.52915 -0.06005,247.50317 -0.01001,9.82402 1.030937,15.6223 c 2.592356,14.55076 9.808917,28.07005 19.567788,39.1759 z"
     id="path10"
     style="display:inline;stroke-width:1.00117" /><path
     fill="#ffffff"
     d="m 509.06953,95.907895 q -0.47043,2.984258 0.16015,6.519305 0.4404,2.46352 -0.73067,4.54649 -1.31119,2.3133 -1.62147,3.53504 -2.89263,11.36622 -8.10737,20.88981 -3.08281,5.63805 -6.12557,11.17595 c -1.06097,1.92274 -1.2111,4.31616 -1.22111,6.43919 q -0.34031,111.45905 -0.24022,238.15984 c 0.01,5.97854 -0.40036,11.68668 -1.7616,17.5851 -2.46224,10.6552 -8.43767,18.97708 -16.63512,26.57792 q -13.12193,12.15735 -30.32757,16.01285 -6.11556,1.37196 -19.72794,1.402 c -86.4686,0.20029 -173.56778,0.11016 -261.86805,0.18026 q -10.75979,0.01 -22.75069,-0.39056 -22.28025,-0.76108 -39.415825,-15.83259 -7.396724,-6.50929 -12.851683,-14.86121 -5.725205,-8.7625 -7.316651,-19.96849 -0.140128,-1.01144 -0.540492,-0.0701 -5.895359,13.85978 -5.244768,29.10153 0.08007,2.05293 2.462239,7.49069 0.460418,1.0515 2.472247,3.94563 1.551411,2.22317 1.621474,4.53647 C 69.53997,431.77717 62.323409,418.25788 59.731053,403.70712 q -1.040947,-5.79828 -1.030937,-15.6223 0.170154,-135.97402 0.06005,-247.50317 -0.01001,-15.34189 0.300273,-27.62943 0.310282,-12.13732 3.573248,-21.620856 C 72.862991,61.578908 99.026775,38.055341 130.14506,33.819297 q 7.16652,-0.971387 20.0182,-0.971387 144.69153,0 278.16287,-0.01001 16.98544,0 33.49044,7.941332 27.94541,13.449192 41.80801,40.658018 3.25296,6.369088 5.44495,14.470649 z M 258.44169,139.26978 c 4.8344,-0.0401 8.82803,2.02288 11,6.49927 3.23294,6.64949 -1.83166,14.09011 -9.05823,14.07008 q -16.20473,-0.0601 -32.09918,-0.0801 a 0.47042765,0.47067163 0 0 0 -0.47043,0.47067 l -0.12011,22.06149 q -0.01,0.58082 0.58053,0.58082 16.26478,0.0801 32.06915,0.18026 c 10.63967,0.0701 13.7525,14.53074 4.37398,19.34761 q -2.42221,1.24177 -6.76615,1.21173 -15.76434,-0.11016 -29.57689,0.0401 a 0.33030027,0.33047157 0 0 0 -0.3303,0.33047 q 0.02,11.93703 0.0701,24.88551 0.05,11.4964 4.76433,21.54074 10.20928,21.76105 32.0091,29.99279 c 37.30391,14.09011 76.07916,-13.06864 75.98908,-52.81536 q -0.03,-11.71672 0.03,-23.62371 a 0.43039126,0.43061447 0 0 0 -0.43039,-0.43062 q -16.39491,-0.0401 -32.17926,0.0601 -2.73248,0.02 -4.94449,-1.16166 c -9.66879,-5.17739 -5.32484,-19.42772 5.05459,-19.34761 q 15.35396,0.11016 32.07917,0.29042 0.5505,0 0.5505,-0.54077 l 0.03,-22.27178 q 0,-0.58083 -0.57052,-0.59085 -14.76342,-0.17024 -30.65787,-0.0801 -3.62329,0.01 -6.11555,-1.43205 c -4.91447,-2.84405 -7.55687,-9.13303 -3.9536,-14.06006 q 3.71338,-5.06723 10.13922,-5.09727 15.85441,-0.0701 30.53776,-0.11016 0.56051,0 0.59054,-0.55078 1.48134,-25.25604 -15.07371,-42.580771 C 310.21876,79.594616 286.6173,73.385756 265.12777,81.206917 247.49174,87.616062 234.16963,102.95796 229.46535,120.80342 q -2.15196,8.19169 -1.52138,17.87551 0.04,0.5608 0.61055,0.57082 14.98362,0.13018 29.88717,0.02 z m 10.5596,235.34582 q -20.63876,0.0601 -41.22748,-0.04 c -5.90537,-0.0301 -10.63967,0.67095 -14.60327,5.43776 -5.52503,6.64949 -5.14468,15.88266 2.05186,21.27035 q 4.11374,3.07439 8.17744,3.07439 60.68516,0 121.93084,-0.01 c 2.62238,0 5.07461,-0.45064 7.22657,-2.06294 7.2566,-5.4678 9.20837,-14.03002 3.65332,-21.77107 q -4.20382,-5.86837 -11.39035,-5.89842 -21.56961,-0.10014 -44.26024,-0.0501 a 0.55050044,0.55078595 0 0 1 -0.5505,-0.55078 l 0.03,-36.43199 q 0,-0.78111 0.76069,-0.89127 c 14.79345,-2.18312 28.19563,-6.67953 41.31756,-14.55077 q 17.14559,-10.29469 30.72793,-27.10868 c 8.89809,-11.01572 14.83349,-23.88408 18.98726,-37.41339 q 4.36397,-14.19024 4.16379,-30.63371 -0.18017,-15.36192 -0.0901,-31.94558 0.03,-4.81688 -1.26115,-8.27181 c -6.12557,-16.41342 -28.43585,-12.25749 -28.73612,5.42775 q -0.26024,15.68238 -0.04,33.12727 0.13012,9.58367 -1.36124,17.08438 -4.66424,23.57364 -22.02001,41.68949 c -12.52139,13.06865 -29.84714,22.50211 -47.92357,23.87406 -11.09008,0.84121 -22.52047,0.72103 -32.92994,-2.60371 -20.23839,-6.47925 -38.79526,-20.85977 -48.78434,-39.947 -5.57507,-10.67524 -9.68881,-23.48351 -9.69882,-35.35045 q -0.01,-15.38195 0.26023,-33.99851 0.0801,-5.21745 -0.8908,-8.30185 c -1.82166,-5.82832 -7.0364,-10.9356 -13.38217,-11.19597 -10.60965,-0.45065 -15.9445,8.30184 -15.93449,17.8755 q 0.03,17.80541 0,36.46203 -0.01,8.84262 1.63149,16.6738 c 6.23567,29.74244 24.37215,55.61936 49.43494,72.40331 12.01092,8.04148 25.8535,13.12874 40.06642,16.5336 q 2.14195,0.51072 4.19381,0.44062 1.12102,-0.04 1.12102,1.07153 l -0.04,35.97133 q 0,0.60086 -0.61056,0.61087 z"
     id="path11"
     style="display:inline;stroke-width:1.00117;fill:#eb4634;fill-opacity:1" /><path
     fill="#000000"
     d="m 258.44169,139.26978 q -14.90355,0.11015 -29.88717,-0.02 -0.57052,-0.01 -0.61055,-0.57082 -0.63058,-9.68382 1.52138,-17.87551 c 4.70428,-17.84546 18.02639,-33.187358 35.66242,-39.596503 21.48953,-7.821161 45.09099,-1.612301 60.8353,14.851192 q 16.55505,17.324731 15.07371,42.580771 -0.03,0.55078 -0.59054,0.55078 -14.68335,0.0401 -30.53776,0.11016 -6.42584,0.03 -10.13922,5.09727 c -3.60327,4.92703 -0.96087,11.21601 3.9536,14.06006 q 2.49226,1.44206 6.11555,1.43205 15.89445,-0.0901 30.65787,0.0801 0.57052,0.01 0.57052,0.59085 l -0.03,22.27178 q 0,0.54077 -0.5505,0.54077 -16.72521,-0.18026 -32.07917,-0.29042 c -10.37943,-0.0801 -14.72338,14.17022 -5.05459,19.34761 q 2.21201,1.18169 4.94449,1.16166 15.78435,-0.10014 32.17926,-0.0601 a 0.43039126,0.43061447 0 0 1 0.43039,0.43062 q -0.0601,11.90699 -0.03,23.62371 c 0.0901,39.74672 -38.68517,66.90547 -75.98908,52.81536 q -21.79982,-8.23174 -32.0091,-29.99279 -4.71428,-10.04434 -4.76433,-21.54074 -0.05,-12.94848 -0.0701,-24.88551 a 0.33030027,0.33047157 0 0 1 0.3303,-0.33047 q 13.81255,-0.15022 29.57689,-0.0401 4.34394,0.03 6.76615,-1.21173 c 9.37852,-4.81687 6.26569,-19.27751 -4.37398,-19.34761 q -15.80437,-0.10014 -32.06915,-0.18026 -0.59054,0 -0.58053,-0.58082 l 0.12011,-22.06149 a 0.47042765,0.47067163 0 0 1 0.47043,-0.47067 q 15.89445,0.02 32.09918,0.0801 c 7.22657,0.02 12.29117,-7.42059 9.05823,-14.07008 -2.17197,-4.47639 -6.1656,-6.53933 -11,-6.49927 z"
     id="path12"
     style="display:inline;stroke-width:1.00117;fill:#ffffff;fill-opacity:1" /><path
     fill="#dadee3"
     d="m 509.06953,95.907895 q 2.45223,10.875525 2.3121,17.795395 c -0.40036,19.71814 0.03,39.47633 0.01,59.08431 q -0.1101,110.40755 -0.0701,220.8151 c 0,13.68953 -4.60419,25.79681 -11.97089,37.41339 q -15.01364,23.65375 -40.63694,34.94987 -8.92811,3.93561 -18.24658,5.51787 -6.40583,1.09156 -18.0364,1.06152 -135.95359,-0.32046 -274.95996,0.0501 c -6.68608,0.01 -13.80255,0.13018 -20.31847,-1.29185 q -28.50591,-6.25893 -47.853499,-28.42055 -0.07006,-2.3133 -1.621474,-4.53647 -2.011829,-2.89413 -2.472247,-3.94563 -2.382166,-5.43776 -2.462239,-7.49069 -0.650591,-15.24175 5.244768,-29.10153 0.400364,-0.94134 0.540492,0.0701 1.591446,11.20599 7.316651,19.96849 5.454959,8.35192 12.851683,14.86121 17.135575,15.07151 39.415825,15.83259 11.9909,0.40057 22.75069,0.39056 c 88.30027,-0.0701 175.39945,0.02 261.86805,-0.18026 q 13.61238,-0.03 19.72794,-1.402 17.20564,-3.8555 30.32757,-16.01285 c 8.19745,-7.60084 14.17288,-15.92272 16.63512,-26.57792 1.36124,-5.89842 1.77161,-11.60656 1.7616,-17.5851 q -0.10009,-126.70079 0.24022,-238.15984 c 0.01,-2.12303 0.16014,-4.51645 1.22111,-6.43919 q 3.04276,-5.5379 6.12557,-11.17595 5.21474,-9.52359 8.10737,-20.88981 0.31028,-1.22174 1.62147,-3.53504 1.17107,-2.08297 0.73067,-4.54649 -0.63058,-3.535047 -0.16015,-6.519305 z"
     id="path13"
     style="display:inline;stroke-width:1.00117;fill:#9b1c0f;fill-opacity:1" /><path
     fill="#dadee3"
     d="m 53.725593,530.80849 q 17.525933,16.18309 38.014558,24.12442 9.238399,3.5751 21.649679,5.68812 7.33667,1.25178 19.92811,1.34191 15.08372,0.10014 29.54686,0.10014 139.87716,-0.01 282.00637,-0.03 6.91629,0 14.24295,-1.4721 c 23.15104,-4.64663 44.58052,-15.21171 60.86533,-32.26604 q 24.3121,-25.45633 31.93903,-58.27315 c 1.60146,-6.89985 2.0819,-13.84977 2.0919,-21.08009 q 0.27025,-159.62778 0.16015,-318.49447 0,-5.26752 -0.86078,-10.60514 -0.91083,-5.608 -2.07189,-11.18596 0.85078,-1.59227 0.89081,0.95136 c 0.01,0.52074 0.25023,0.94134 0.64059,1.29184 q 0.10009,0.0901 0.06,-0.0401 -0.05,-0.23032 0.14013,-0.40057 0.46042,-0.40057 0.58053,0.20029 l 0.34031,1.77253 q 0.10009,0.52074 0.54049,0.80114 1.42129,0.92132 2.43221,2.4535 c 5.90537,9.00285 11.47043,19.03717 14.55323,29.0815 q 5.42493,17.67522 5.44495,31.27463 0.21019,147.28016 0.10009,281.14118 -0.01,13.62944 -0.61056,20.01856 c -3.12284,33.0071 -17.34576,63.02994 -42.33849,84.96124 q -28.69608,25.18594 -66.14012,29.77248 -7.65696,0.94135 -19.99818,0.9814 c -65.05914,0.22032 -129.798,-0.0801 -192.92538,-0.02 q -44.92084,0.0501 -86.32848,-0.03 -11.7707,-0.03 -19.55778,-0.73104 -12.30119,-1.1216 -23.22111,-4.37625 -9.68881,-2.88411 -20.61874,-7.97137 -14.653323,-6.81973 -28.195634,-18.64661 c -3.22293,-2.81402 -5.795269,-5.96852 -8.707916,-8.92273 -3.463149,-3.505 -6.726115,-7.76108 -9.528663,-11.92702 -0.860782,-1.29185 -0.9909,-2.32332 -2.181983,-3.53505 q -2.56233,-2.60371 -2.882621,-5.94848 z"
     id="path14"
     style="display:inline;stroke-width:1.00117" /><path
     fill="#000000"
     d="m 269.61185,374.00473 0.04,-35.97133 q 0,-1.11158 -1.12102,-1.07153 -2.05186,0.0701 -4.19381,-0.44062 c -14.21292,-3.40486 -28.0555,-8.49212 -40.06642,-16.5336 -25.06279,-16.78395 -43.19927,-42.66087 -49.43494,-72.40331 q -1.6415,-7.83118 -1.63149,-16.6738 0.03,-18.65662 0,-36.46203 c -0.01,-9.57366 5.32484,-18.32615 15.93449,-17.8755 6.34577,0.26037 11.56051,5.36765 13.38217,11.19597 q 0.97088,3.0844 0.8908,8.30185 -0.27024,18.61656 -0.26023,33.99851 c 0.01,11.86694 4.12375,24.67521 9.69882,35.35045 9.98908,19.08723 28.54595,33.46775 48.78434,39.947 10.40947,3.32474 21.83986,3.44492 32.92994,2.60371 18.07643,-1.37195 35.40218,-10.80541 47.92357,-23.87406 q 17.35577,-18.11585 22.02001,-41.68949 1.49136,-7.50071 1.36124,-17.08438 -0.2202,-17.44489 0.04,-33.12727 c 0.30027,-17.68524 22.61055,-21.84117 28.73612,-5.42775 q 1.29117,3.45493 1.26115,8.27181 -0.0901,16.58366 0.0901,31.94558 0.20018,16.44347 -4.16379,30.63371 c -4.15377,13.52931 -10.08917,26.39767 -18.98726,37.41339 q -13.58234,16.81399 -30.72793,27.10868 c -13.12193,7.87124 -26.52411,12.36765 -41.31756,14.55077 q -0.76069,0.11016 -0.76069,0.89127 l -0.03,36.43199 a 0.55050044,0.55078595 0 0 0 0.5505,0.55078 q 22.69063,-0.0501 44.26024,0.0501 7.18653,0.0301 11.39035,5.89842 c 5.55505,7.74105 3.60328,16.30327 -3.65332,21.77107 -2.15196,1.6123 -4.60419,2.06294 -7.22657,2.06294 q -61.24568,0.01 -121.93084,0.01 -4.0637,0 -8.17744,-3.07439 c -7.19654,-5.38769 -7.57689,-14.62086 -2.05186,-21.27035 3.9636,-4.76681 8.6979,-5.46781 14.60327,-5.43776 q 20.58872,0.10014 41.22748,0.04 0.61056,-0.01 0.61056,-0.61087 z"
     id="path15"
     style="display:inline;stroke-width:1.00117;fill:#ffffff;fill-opacity:1" /></svg>
