<?xml version="1.0" encoding="UTF-8" standalone="no"?>
<svg
   version="1.1"
   viewBox="0 0 594 594"
   id="svg15"
   sodipodi:docname="wsp_ready.svg"
   width="594"
   height="594"
   inkscape:version="1.3 (0e150ed6c4, 2023-07-21)"
   inkscape:export-filename="wsp_logo.png"
   inkscape:export-xdpi="96"
   inkscape:export-ydpi="96"
   xml:space="preserve"
   xmlns:inkscape="http://www.inkscape.org/namespaces/inkscape"
   xmlns:sodipodi="http://sodipodi.sourceforge.net/DTD/sodipodi-0.dtd"
   xmlns="http://www.w3.org/2000/svg"
   xmlns:svg="http://www.w3.org/2000/svg"><defs
     id="defs15" /><sodipodi:namedview
     id="namedview15"
     pagecolor="#ffffff"
     bordercolor="#000000"
     borderopacity="0.25"
     inkscape:showpageshadow="2"
     inkscape:pageopacity="0.0"
     inkscape:pagecheckerboard="0"
     inkscape:deskcolor="#d1d1d1"
     inkscape:zoom="0.75878907"
     inkscape:cx="461.9202"
     inkscape:cy="365.71428"
     inkscape:window-width="1920"
     inkscape:window-height="991"
     inkscape:window-x="-9"
     inkscape:window-y="-9"
     inkscape:window-maximized="1"
     inkscape:current-layer="g15" /><g
     id="g15"
     transform="matrix(1.0009099,0,0,1.001429,16.000004,4.5343207e-4)"><path
       fill="#000000"
       d="m 534.75129,108.50059 q 1.16,5.57 2.07,11.17 0.86,5.33 0.86,10.59 0.11,158.64 -0.16,318.04 c -0.01,7.22 -0.49,14.16 -2.09,21.05 q -7.62,32.77 -31.91,58.19 c -16.27,17.03 -37.68,27.58 -60.81,32.22 q -7.32,1.47 -14.23,1.47 -142,0.02 -281.75,0.03 -14.45,0 -29.52,-0.1 -12.58,-0.09 -19.909996,-1.34 -12.4,-2.11 -21.63,-5.68 -20.47,-7.93 -37.98,-24.09 c -19.98,-19.73 -34.1499996,-46.97 -36.4199996,-75.26 q -0.28999998,-3.68 -0.27,-8.91 0.54,-156.64 0.09,-311.85 -0.03,-10.33 1.14,-18.4 5.55,-38.000005 30.2399996,-68.330005 6.11,-7.51 10.44,-11.51 22.13,-20.38 50.19,-29.1599996 10.739996,-3.36 21.399996,-4.61 6.75,-0.79 19.73,-0.79 130.74,-0.06 267.55,-0.23 13.21,-0.02 19.68,0.65 20.09,2.09 38.22,11.0599996 8.6,4.26 17.22,9.51 7.74,4.72 15.86,12.14 32.65,29.83 41.99,74.140005 z m -471.509996,333.75 q 19.33,22.13 47.809996,28.38 c 6.51,1.42 13.62,1.3 20.3,1.29 q 138.88,-0.37 274.71,-0.05 11.62,0.03 18.02,-1.06 9.31,-1.58 18.23,-5.51 25.6,-11.28 40.6,-34.9 c 7.36,-11.6 11.96,-23.69 11.96,-37.36 q -0.04,-110.25 0.07,-220.5 c 0.02,-19.58 -0.41,-39.31 -0.01,-59 q 0.14,-6.91 -2.31,-17.770005 -2.19,-8.09 -5.44,-14.45 -13.85,-27.17 -41.77,-40.6 -16.49,-7.93 -33.46,-7.93 -133.35,0.01 -277.91,0.01 -12.84,0 -20,0.97 c -31.089996,4.23 -57.229996,27.72 -67.449996,57.43 q -3.26,9.470005 -3.57,21.590005 -0.31,12.27 -0.3,27.59 0.11,111.37 -0.06,247.15 -0.01,9.81 1.03,15.6 c 2.59,14.53 9.8,28.03 19.55,39.12 z"
       id="path10"
       style="display:inline" /><path
       fill="#ffffff"
       d="m 492.62129,95.770585 q -0.47,2.98 0.16,6.510005 0.44,2.46 -0.73,4.54 -1.31,2.31 -1.62,3.53 -2.89,11.35 -8.1,20.86 -3.08,5.63 -6.12,11.16 c -1.06,1.92 -1.21,4.31 -1.22,6.43 q -0.34,111.3 -0.24,237.82 c 0.01,5.97 -0.4,11.67 -1.76,17.56 -2.46,10.64 -8.43,18.95 -16.62,26.54 q -13.11,12.14 -30.3,15.99 -6.11,1.37 -19.71,1.4 c -86.39,0.2 -173.41,0.11 -261.63,0.18 q -10.75,0.01 -22.73,-0.39 -22.259996,-0.76 -39.379996,-15.81 -7.39,-6.5 -12.84,-14.84 -5.72,-8.75 -7.31,-19.94 -0.14,-1.01 -0.54,-0.07 -5.89,13.84 -5.24,29.06 0.08,2.05 2.46,7.48 0.46,1.05 2.47,3.94 1.55,2.22 1.62,4.53 c -9.75,-11.09 -16.96,-24.59 -19.55,-39.12 q -1.04,-5.79 -1.03,-15.6 0.17,-135.78 0.06,-247.15 -0.01,-15.32 0.3,-27.59 0.31,-12.12 3.57,-21.590005 c 10.22,-29.71 36.36,-53.2 67.449996,-57.43 q 7.16,-0.97 20,-0.97 144.56,0 277.91,-0.01 16.97,0 33.46,7.93 27.92,13.43 41.77,40.6 3.25,6.36 5.44,14.45 z m -250.4,43.300005 c 4.83,-0.04 8.82,2.02 10.99,6.49 3.23,6.64 -1.83,14.07 -9.05,14.05 q -16.19,-0.06 -32.07,-0.08 a 0.47,0.47 0 0 0 -0.47,0.47 l -0.12,22.03 q -0.01,0.58 0.58,0.58 16.25,0.08 32.04,0.18 c 10.63,0.07 13.74,14.51 4.37,19.32 q -2.42,1.24 -6.76,1.21 -15.75,-0.11 -29.55,0.04 a 0.33,0.33 0 0 0 -0.33,0.33 q 0.02,11.92 0.07,24.85 0.05,11.48 4.76,21.51 10.2,21.73 31.98,29.95 c 37.27,14.07 76.01,-13.05 75.92,-52.74 q -0.03,-11.7 0.03,-23.59 a 0.43,0.43 0 0 0 -0.43,-0.43 q -16.38,-0.04 -32.15,0.06 -2.73,0.02 -4.94,-1.16 c -9.66,-5.17 -5.32,-19.4 5.05,-19.32 q 15.34,0.11 32.05,0.29 0.55,0 0.55,-0.54 l 0.03,-22.24 q 0,-0.58 -0.57,-0.59 -14.75,-0.17 -30.63,-0.08 -3.62,0.01 -6.11,-1.43 c -4.91,-2.84 -7.55,-9.12 -3.95,-14.04 q 3.71,-5.06 10.13,-5.09 15.84,-0.07 30.51,-0.11 0.56,0 0.59,-0.55 1.48,-25.22 -15.06,-42.520005 c -15.73,-16.44 -39.31,-22.64 -60.78,-14.83 -17.62,6.4 -30.93,21.720005 -35.63,39.540005 q -2.15,8.18 -1.52,17.85 0.04,0.56 0.61,0.57 14.97,0.13 29.86,0.02 z m 10.55,235.01 q -20.62,0.06 -41.19,-0.04 c -5.9,-0.03 -10.63,0.67 -14.59,5.43 -5.52,6.64 -5.14,15.86 2.05,21.24 q 4.11,3.07 8.17,3.07 60.63,0 121.82,-0.01 c 2.62,0 5.07,-0.45 7.22,-2.06 7.25,-5.46 9.2,-14.01 3.65,-21.74 q -4.2,-5.86 -11.38,-5.89 -21.55,-0.1 -44.22,-0.05 a 0.55,0.55 0 0 1 -0.55,-0.55 l 0.03,-36.38 q 0,-0.78 0.76,-0.89 c 14.78,-2.18 28.17,-6.67 41.28,-14.53 q 17.13,-10.28 30.7,-27.07 c 8.89,-11 14.82,-23.85 18.97,-37.36 q 4.36,-14.17 4.16,-30.59 -0.18,-15.34 -0.09,-31.9 0.03,-4.81 -1.26,-8.26 c -6.12,-16.39 -28.41,-12.24 -28.71,5.42 q -0.26,15.66 -0.04,33.08 0.13,9.57 -1.36,17.06 -4.66,23.54 -22,41.63 c -12.51,13.05 -29.82,22.47 -47.88,23.84 -11.08,0.84 -22.5,0.72 -32.9,-2.6 -20.22,-6.47 -38.76,-20.83 -48.74,-39.89 -5.57,-10.66 -9.68,-23.45 -9.69,-35.3 q -0.01,-15.36 0.26,-33.95 0.08,-5.21 -0.89,-8.29 c -1.82,-5.82 -7.03,-10.92 -13.37,-11.18 -10.6,-0.45 -15.93,8.29 -15.92,17.85 q 0.03,17.78 0,36.41 -0.01,8.83 1.63,16.65 c 6.23,29.7 24.35,55.54 49.39,72.3 12,8.03 25.83,13.11 40.03,16.51 q 2.14,0.51 4.19,0.44 1.12,-0.04 1.12,1.07 l -0.04,35.92 q 0,0.6 -0.61,0.61 z"
       id="path11"
       style="display:inline;stroke-width:0.99983078;stroke-dasharray:none;fill:#48c819;fill-opacity:1" /><path
       fill="#dadee3"
       d="m 492.62129,95.770585 q 2.45,10.860005 2.31,17.770005 c -0.4,19.69 0.03,39.42 0.01,59 q -0.11,110.25 -0.07,220.5 c 0,13.67 -4.6,25.76 -11.96,37.36 q -15,23.62 -40.6,34.9 -8.92,3.93 -18.23,5.51 -6.4,1.09 -18.02,1.06 -135.83,-0.32 -274.71,0.05 c -6.68,0.01 -13.79,0.13 -20.3,-1.29 q -28.479996,-6.25 -47.809996,-28.38 -0.07,-2.31 -1.62,-4.53 -2.01,-2.89 -2.47,-3.94 -2.38,-5.43 -2.46,-7.48 -0.65,-15.22 5.24,-29.06 0.4,-0.94 0.54,0.07 1.59,11.19 7.31,19.94 5.45,8.34 12.84,14.84 17.12,15.05 39.379996,15.81 11.98,0.4 22.73,0.39 c 88.22,-0.07 175.24,0.02 261.63,-0.18 q 13.6,-0.03 19.71,-1.4 17.19,-3.85 30.3,-15.99 c 8.19,-7.59 14.16,-15.9 16.62,-26.54 1.36,-5.89 1.77,-11.59 1.76,-17.56 q -0.1,-126.52 0.24,-237.82 c 0.01,-2.12 0.16,-4.51 1.22,-6.43 q 3.04,-5.53 6.12,-11.16 5.21,-9.51 8.1,-20.86 0.31,-1.22 1.62,-3.53 1.17,-2.08 0.73,-4.54 -0.63,-3.530005 -0.16,-6.510005 z"
       id="path13"
       style="display:inline;fill:#2c8c12;fill-opacity:1" /><path
       fill="#dadee3"
       d="m 37.691294,530.05059 q 17.51,16.16 37.98,24.09 9.23,3.57 21.63,5.68 7.329996,1.25 19.909996,1.34 15.07,0.1 29.52,0.1 139.75,-0.01 281.75,-0.03 6.91,0 14.23,-1.47 c 23.13,-4.64 44.54,-15.19 60.81,-32.22 q 24.29,-25.42 31.91,-58.19 c 1.6,-6.89 2.08,-13.83 2.09,-21.05 q 0.27,-159.4 0.16,-318.04 0,-5.26 -0.86,-10.59 -0.91,-5.6 -2.07,-11.17 0.85,-1.59 0.89,0.95 c 0.01,0.52 0.25,0.94 0.64,1.29 q 0.1,0.09 0.06,-0.04 -0.05,-0.23 0.14,-0.4 0.46,-0.4 0.58,0.2 l 0.34,1.77 q 0.1,0.52 0.54,0.8 1.42,0.92 2.43,2.45 c 5.9,8.99 11.46,19.01 14.54,29.04 q 5.42,17.65 5.44,31.23 0.21,147.07 0.1,280.74 -0.01,13.61 -0.61,19.99 c -3.12,32.96 -17.33,62.94 -42.3,84.84 q -28.67,25.15 -66.08,29.73 -7.65,0.94 -19.98,0.98 c -65,0.22 -129.68,-0.08 -192.75,-0.02 q -44.88,0.05 -86.25,-0.03 -11.76,-0.03 -19.54,-0.73 -12.29,-1.12 -23.2,-4.37 -9.68,-2.88 -20.599996,-7.96 -14.64,-6.81 -28.17,-18.62 c -3.22,-2.81 -5.79,-5.96 -8.7,-8.91 -3.46,-3.5 -6.72,-7.75 -9.52,-11.91 -0.86,-1.29 -0.99,-2.32 -2.18,-3.53 q -2.56,-2.6 -2.88,-5.94 z"
       id="path14"
       style="display:inline" /><g
       id="g2"><path
         fill="#000000"
         d="m 242.22129,139.07059 q -14.89,0.11 -29.86,-0.02 -0.57,-0.01 -0.61,-0.57 -0.63,-9.67 1.52,-17.85 c 4.7,-17.82 18.01,-33.140005 35.63,-39.540005 21.47,-7.81 45.05,-1.61 60.78,14.83 q 16.54,17.300005 15.06,42.520005 -0.03,0.55 -0.59,0.55 -14.67,0.04 -30.51,0.11 -6.42,0.03 -10.13,5.09 c -3.6,4.92 -0.96,11.2 3.95,14.04 q 2.49,1.44 6.11,1.43 15.88,-0.09 30.63,0.08 0.57,0.01 0.57,0.59 l -0.03,22.24 q 0,0.54 -0.55,0.54 -16.71,-0.18 -32.05,-0.29 c -10.37,-0.08 -14.71,14.15 -5.05,19.32 q 2.21,1.18 4.94,1.16 15.77,-0.1 32.15,-0.06 a 0.43,0.43 0 0 1 0.43,0.43 q -0.06,11.89 -0.03,23.59 c 0.09,39.69 -38.65,66.81 -75.92,52.74 q -21.78,-8.22 -31.98,-29.95 -4.71,-10.03 -4.76,-21.51 -0.05,-12.93 -0.07,-24.85 a 0.33,0.33 0 0 1 0.33,-0.33 q 13.8,-0.15 29.55,-0.04 4.34,0.03 6.76,-1.21 c 9.37,-4.81 6.26,-19.25 -4.37,-19.32 q -15.79,-0.1 -32.04,-0.18 -0.59,0 -0.58,-0.58 l 0.12,-22.03 a 0.47,0.47 0 0 1 0.47,-0.47 q 15.88,0.02 32.07,0.08 c 7.22,0.02 12.28,-7.41 9.05,-14.05 -2.17,-4.47 -6.16,-6.53 -10.99,-6.49 z"
         id="path12"
         style="display:inline;fill:#ffffff;fill-opacity:1" /><path
         fill="#000000"
         d="m 253.38129,373.47059 0.04,-35.92 q 0,-1.11 -1.12,-1.07 -2.05,0.07 -4.19,-0.44 c -14.2,-3.4 -28.03,-8.48 -40.03,-16.51 -25.04,-16.76 -43.16,-42.6 -49.39,-72.3 q -1.64,-7.82 -1.63,-16.65 0.03,-18.63 0,-36.41 c -0.01,-9.56 5.32,-18.3 15.92,-17.85 6.34,0.26 11.55,5.36 13.37,11.18 q 0.97,3.08 0.89,8.29 -0.27,18.59 -0.26,33.95 c 0.01,11.85 4.12,24.64 9.69,35.3 9.98,19.06 28.52,33.42 48.74,39.89 10.4,3.32 21.82,3.44 32.9,2.6 18.06,-1.37 35.37,-10.79 47.88,-23.84 q 17.34,-18.09 22,-41.63 1.49,-7.49 1.36,-17.06 -0.22,-17.42 0.04,-33.08 c 0.3,-17.66 22.59,-21.81 28.71,-5.42 q 1.29,3.45 1.26,8.26 -0.09,16.56 0.09,31.9 0.2,16.42 -4.16,30.59 c -4.15,13.51 -10.08,26.36 -18.97,37.36 q -13.57,16.79 -30.7,27.07 c -13.11,7.86 -26.5,12.35 -41.28,14.53 q -0.76,0.11 -0.76,0.89 l -0.03,36.38 a 0.55,0.55 0 0 0 0.55,0.55 q 22.67,-0.05 44.22,0.05 7.18,0.03 11.38,5.89 c 5.55,7.73 3.6,16.28 -3.65,21.74 -2.15,1.61 -4.6,2.06 -7.22,2.06 q -61.19,0.01 -121.82,0.01 -4.06,0 -8.17,-3.07 c -7.19,-5.38 -7.57,-14.6 -2.05,-21.24 3.96,-4.76 8.69,-5.46 14.59,-5.43 q 20.57,0.1 41.19,0.04 0.61,-0.01 0.61,-0.61 z"
         id="path15"
         style="display:inline;fill:#ffffff;fill-opacity:1" /></g></g></svg>
