<?xml version="1.0" encoding="UTF-8" standalone="no"?>
<svg
   version="1.1"
   viewBox="0 0 452.69229 439.7641"
   id="svg15"
   sodipodi:docname="wsp_record.svg"
   width="452.69229"
   height="439.7641"
   inkscape:version="1.3 (0e150ed6c4, 2023-07-21)"
   inkscape:export-filename="wsp_logo.png"
   inkscape:export-xdpi="96"
   inkscape:export-ydpi="96"
   xml:space="preserve"
   xmlns:inkscape="http://www.inkscape.org/namespaces/inkscape"
   xmlns:sodipodi="http://sodipodi.sourceforge.net/DTD/sodipodi-0.dtd"
   xmlns="http://www.w3.org/2000/svg"
   xmlns:svg="http://www.w3.org/2000/svg"><defs
     id="defs15" /><sodipodi:namedview
     id="namedview15"
     pagecolor="#ffffff"
     bordercolor="#000000"
     borderopacity="0.25"
     inkscape:showpageshadow="2"
     inkscape:pageopacity="0.0"
     inkscape:pagecheckerboard="0"
     inkscape:deskcolor="#d1d1d1"
     inkscape:zoom="1.0730898"
     inkscape:cx="286.5557"
     inkscape:cy="208.27707"
     inkscape:window-width="1920"
     inkscape:window-height="991"
     inkscape:window-x="-9"
     inkscape:window-y="-9"
     inkscape:window-maximized="1"
     inkscape:current-layer="svg15" /><path
     fill="#ffffff"
     d="m 450.36951,63.069995 q -0.47043,2.984258 0.16015,6.519305 0.4404,2.46352 -0.73067,4.54649 -1.31119,2.3133 -1.62147,3.53504 -2.89263,11.36622 -8.10737,20.88981 -3.08281,5.63805 -6.12557,11.17595 c -1.06097,1.92274 -1.2111,4.31616 -1.22111,6.43919 q -0.34031,111.45905 -0.24022,238.15984 c 0.01,5.97854 -0.40036,11.68668 -1.7616,17.5851 -2.46224,10.6552 -8.43767,18.97708 -16.63512,26.57792 q -13.12193,12.15735 -30.32757,16.01285 -6.11556,1.37196 -19.72794,1.402 c -86.4686,0.20029 -173.56778,0.11016 -261.86805,0.18026 q -10.759791,0.01 -22.750691,-0.39056 -22.28025,-0.76108 -39.415825,-15.83259 -7.396724,-6.50929 -12.851683,-14.86121 -5.725205,-8.7625 -7.316651,-19.96849 -0.140128,-1.01144 -0.540492,-0.0701 -5.895359,13.85978 -5.244768,29.10153 0.08007,2.05293 2.462239,7.49069 0.460418,1.0515 2.472247,3.94563 1.551411,2.22317 1.621474,4.53647 C 10.839949,398.93927 3.6233883,385.41998 1.0310323,370.86922 Q -0.00991466,365.07094 9.5341769e-5,355.24692 0.17024934,219.2729 0.06014534,107.74375 0.05013534,92.40186 0.36041834,80.11432 0.67070034,67.977 3.9336663,58.493464 C 14.16297,28.741008 40.326754,5.217441 71.445039,0.981397 Q 78.611559,0.01001 91.463239,0.01001 236.15477,0.01001 369.62611,0 q 16.98544,0 33.49044,7.941332 27.94541,13.449192 41.80801,40.658018 3.25296,6.369088 5.44495,14.470649 z M 199.74167,106.43188 c 4.8344,-0.0401 8.82803,2.02288 11,6.49927 3.23294,6.64949 -1.83166,14.09011 -9.05823,14.07008 q -16.20473,-0.0601 -32.09918,-0.0801 a 0.47042765,0.47067163 0 0 0 -0.47043,0.47067 l -0.12011,22.06149 q -0.01,0.58082 0.58053,0.58082 16.26478,0.0801 32.06915,0.18026 c 10.63967,0.0701 13.7525,14.53074 4.37398,19.34761 q -2.42221,1.24177 -6.76615,1.21173 -15.76434,-0.11016 -29.57689,0.0401 a 0.33030027,0.33047157 0 0 0 -0.3303,0.33047 q 0.02,11.93703 0.0701,24.88551 0.05,11.4964 4.76433,21.54074 10.20928,21.76105 32.0091,29.99279 c 37.30391,14.09011 76.07916,-13.06864 75.98908,-52.81536 q -0.03,-11.71672 0.03,-23.62371 a 0.43039126,0.43061447 0 0 0 -0.43039,-0.43062 q -16.39491,-0.0401 -32.17926,0.0601 -2.73248,0.02 -4.94449,-1.16166 c -9.66879,-5.17739 -5.32484,-19.42772 5.05459,-19.34761 q 15.35396,0.11016 32.07917,0.29042 0.5505,0 0.5505,-0.54077 l 0.03,-22.27178 q 0,-0.58083 -0.57052,-0.59085 -14.76342,-0.17024 -30.65787,-0.0801 -3.62329,0.01 -6.11555,-1.43205 c -4.91447,-2.84405 -7.55687,-9.13303 -3.9536,-14.06006 q 3.71338,-5.06723 10.13922,-5.09727 15.85441,-0.0701 30.53776,-0.11016 0.56051,0 0.59054,-0.55078 1.48134,-25.25604 -15.07371,-42.580771 C 251.51874,46.756716 227.91728,40.547856 206.42775,48.369017 188.79172,54.778162 175.46961,70.12006 170.76533,87.96552 q -2.15196,8.19169 -1.52138,17.87551 0.04,0.5608 0.61055,0.57082 14.98362,0.13018 29.88717,0.02 z m 10.5596,235.34582 q -20.63876,0.0601 -41.22748,-0.04 c -5.90537,-0.0301 -10.63967,0.67095 -14.60327,5.43776 -5.52503,6.64949 -5.14468,15.88266 2.05186,21.27035 q 4.11374,3.07439 8.17744,3.07439 60.68516,0 121.93084,-0.01 c 2.62238,0 5.07461,-0.45064 7.22657,-2.06294 7.2566,-5.4678 9.20837,-14.03002 3.65332,-21.77107 q -4.20382,-5.86837 -11.39035,-5.89842 -21.56961,-0.10014 -44.26024,-0.0501 a 0.55050044,0.55078595 0 0 1 -0.5505,-0.55078 l 0.03,-36.43199 q 0,-0.78111 0.76069,-0.89127 c 14.79345,-2.18312 28.19563,-6.67953 41.31756,-14.55077 q 17.14559,-10.29469 30.72793,-27.10868 c 8.89809,-11.01572 14.83349,-23.88408 18.98726,-37.41339 q 4.36397,-14.19024 4.16379,-30.63371 -0.18017,-15.36192 -0.0901,-31.94558 0.03,-4.81688 -1.26115,-8.27181 c -6.12557,-16.41342 -28.43585,-12.25749 -28.73612,5.42775 q -0.26024,15.68238 -0.04,33.12727 0.13012,9.58367 -1.36124,17.08438 -4.66424,23.57364 -22.02001,41.68949 c -12.52139,13.06865 -29.84714,22.50211 -47.92357,23.87406 -11.09008,0.84121 -22.52047,0.72103 -32.92994,-2.60371 -20.23839,-6.47925 -38.79526,-20.85977 -48.78434,-39.947 -5.57507,-10.67524 -9.68881,-23.48351 -9.69882,-35.35045 q -0.01,-15.38195 0.26023,-33.99851 0.0801,-5.21745 -0.8908,-8.30185 c -1.82166,-5.82832 -7.0364,-10.9356 -13.38217,-11.19597 -10.60965,-0.45065 -15.9445,8.30184 -15.93449,17.8755 q 0.03,17.80541 0,36.46203 -0.01,8.84262 1.63149,16.6738 c 6.23567,29.74244 24.37215,55.61936 49.43494,72.40331 12.01092,8.04148 25.8535,13.12874 40.06642,16.5336 q 2.14195,0.51072 4.19381,0.44062 1.12102,-0.04 1.12102,1.07153 l -0.04,35.97133 q 0,0.60086 -0.61056,0.61087 z"
     id="path11"
     style="display:inline;fill:#eb4634;fill-opacity:1;stroke-width:1.00117" /><path
     fill="#000000"
     d="m 199.74167,106.43188 q -14.90355,0.11015 -29.88717,-0.02 -0.57052,-0.01 -0.61055,-0.57082 -0.63058,-9.68382 1.52138,-17.87551 c 4.70428,-17.84546 18.02639,-33.187358 35.66242,-39.596503 21.48953,-7.821161 45.09099,-1.612301 60.8353,14.851192 q 16.55505,17.324731 15.07371,42.580771 -0.03,0.55078 -0.59054,0.55078 -14.68335,0.0401 -30.53776,0.11016 -6.42584,0.03 -10.13922,5.09727 c -3.60327,4.92703 -0.96087,11.21601 3.9536,14.06006 q 2.49226,1.44206 6.11555,1.43205 15.89445,-0.0901 30.65787,0.0801 0.57052,0.01 0.57052,0.59085 l -0.03,22.27178 q 0,0.54077 -0.5505,0.54077 -16.72521,-0.18026 -32.07917,-0.29042 c -10.37943,-0.0801 -14.72338,14.17022 -5.05459,19.34761 q 2.21201,1.18169 4.94449,1.16166 15.78435,-0.10014 32.17926,-0.0601 a 0.43039126,0.43061447 0 0 1 0.43039,0.43062 q -0.0601,11.90699 -0.03,23.62371 c 0.0901,39.74672 -38.68517,66.90547 -75.98908,52.81536 q -21.79982,-8.23174 -32.0091,-29.99279 -4.71428,-10.04434 -4.76433,-21.54074 -0.05,-12.94848 -0.0701,-24.88551 a 0.33030027,0.33047157 0 0 1 0.3303,-0.33047 q 13.81255,-0.15022 29.57689,-0.0401 4.34394,0.03 6.76615,-1.21173 c 9.37852,-4.81687 6.26569,-19.27751 -4.37398,-19.34761 q -15.80437,-0.10014 -32.06915,-0.18026 -0.59054,0 -0.58053,-0.58082 l 0.12011,-22.06149 a 0.47042765,0.47067163 0 0 1 0.47043,-0.47067 q 15.89445,0.02 32.09918,0.0801 c 7.22657,0.02 12.29117,-7.42059 9.05823,-14.07008 -2.17197,-4.47639 -6.1656,-6.53933 -11,-6.49927 z"
     id="path12"
     style="display:inline;fill:#ffffff;fill-opacity:1;stroke-width:1.00117" /><path
     fill="#dadee3"
     d="m 450.36951,63.069995 q 2.45223,10.875525 2.3121,17.795395 c -0.40036,19.71814 0.03,39.47633 0.01,59.08431 q -0.1101,110.40755 -0.0701,220.8151 c 0,13.68953 -4.60419,25.79681 -11.97089,37.41339 q -15.01364,23.65375 -40.63694,34.94987 -8.92811,3.93561 -18.24658,5.51787 -6.40583,1.09156 -18.0364,1.06152 -135.95359,-0.32046 -274.959961,0.0501 c -6.68608,0.01 -13.80255,0.13018 -20.31847,-1.29185 q -28.50591,-6.25893 -47.853499,-28.42055 -0.07006,-2.3133 -1.621474,-4.53647 -2.011829,-2.89413 -2.472247,-3.94563 -2.382166,-5.43776 -2.462239,-7.49069 -0.650591,-15.24175 5.244768,-29.10153 0.400364,-0.94134 0.540492,0.0701 1.591446,11.20599 7.316651,19.96849 5.454959,8.35192 12.851683,14.86121 17.135575,15.07151 39.415825,15.83259 11.9909,0.40057 22.750691,0.39056 c 88.30027,-0.0701 175.39945,0.02 261.86805,-0.18026 q 13.61238,-0.03 19.72794,-1.402 17.20564,-3.8555 30.32757,-16.01285 c 8.19745,-7.60084 14.17288,-15.92272 16.63512,-26.57792 1.36124,-5.89842 1.77161,-11.60656 1.7616,-17.5851 q -0.10009,-126.70079 0.24022,-238.15984 c 0.01,-2.12303 0.16014,-4.51645 1.22111,-6.43919 q 3.04276,-5.5379 6.12557,-11.17595 5.21474,-9.52359 8.10737,-20.88981 0.31028,-1.22174 1.62147,-3.53504 1.17107,-2.08297 0.73067,-4.54649 -0.63058,-3.535047 -0.16015,-6.519305 z"
     id="path13"
     style="display:inline;fill:#9b1c0f;fill-opacity:1;stroke-width:1.00117" /><path
     fill="#000000"
     d="m 210.91183,341.16683 0.04,-35.97133 q 0,-1.11158 -1.12102,-1.07153 -2.05186,0.0701 -4.19381,-0.44062 c -14.21292,-3.40486 -28.0555,-8.49212 -40.06642,-16.5336 -25.06279,-16.78395 -43.19927,-42.66087 -49.43494,-72.40331 q -1.6415,-7.83118 -1.63149,-16.6738 0.03,-18.65662 0,-36.46203 c -0.01,-9.57366 5.32484,-18.32615 15.93449,-17.8755 6.34577,0.26037 11.56051,5.36765 13.38217,11.19597 q 0.97088,3.0844 0.8908,8.30185 -0.27024,18.61656 -0.26023,33.99851 c 0.01,11.86694 4.12375,24.67521 9.69882,35.35045 9.98908,19.08723 28.54595,33.46775 48.78434,39.947 10.40947,3.32474 21.83986,3.44492 32.92994,2.60371 18.07643,-1.37195 35.40218,-10.80541 47.92357,-23.87406 q 17.35577,-18.11585 22.02001,-41.68949 1.49136,-7.50071 1.36124,-17.08438 -0.2202,-17.44489 0.04,-33.12727 c 0.30027,-17.68524 22.61055,-21.84117 28.73612,-5.42775 q 1.29117,3.45493 1.26115,8.27181 -0.0901,16.58366 0.0901,31.94558 0.20018,16.44347 -4.16379,30.63371 c -4.15377,13.52931 -10.08917,26.39767 -18.98726,37.41339 q -13.58234,16.81399 -30.72793,27.10868 c -13.12193,7.87124 -26.52411,12.36765 -41.31756,14.55077 q -0.76069,0.11016 -0.76069,0.89127 l -0.03,36.43199 a 0.55050044,0.55078595 0 0 0 0.5505,0.55078 q 22.69063,-0.0501 44.26024,0.0501 7.18653,0.0301 11.39035,5.89842 c 5.55505,7.74105 3.60328,16.30327 -3.65332,21.77107 -2.15196,1.6123 -4.60419,2.06294 -7.22657,2.06294 q -61.24568,0.01 -121.93084,0.01 -4.0637,0 -8.17744,-3.07439 c -7.19654,-5.38769 -7.57689,-14.62086 -2.05186,-21.27035 3.9636,-4.76681 8.6979,-5.46781 14.60327,-5.43776 q 20.58872,0.10014 41.22748,0.04 0.61056,-0.01 0.61056,-0.61087 z"
     id="path15"
     style="display:inline;fill:#ffffff;fill-opacity:1;stroke-width:1.00117" /></svg>
