<?xml version="1.0" encoding="UTF-8" standalone="no"?>
<svg
   version="1.1"
   viewBox="0 0 452.69229 439.7641"
   id="svg15"
   sodipodi:docname="wsp_wait.svg"
   width="452.69229"
   height="439.7641"
   inkscape:version="1.3 (0e150ed6c4, 2023-07-21)"
   inkscape:export-filename="wsp_logo.png"
   inkscape:export-xdpi="96"
   inkscape:export-ydpi="96"
   xml:space="preserve"
   xmlns:inkscape="http://www.inkscape.org/namespaces/inkscape"
   xmlns:sodipodi="http://sodipodi.sourceforge.net/DTD/sodipodi-0.dtd"
   xmlns="http://www.w3.org/2000/svg"
   xmlns:svg="http://www.w3.org/2000/svg"><defs
     id="defs15" /><sodipodi:namedview
     id="namedview15"
     pagecolor="#ffffff"
     bordercolor="#000000"
     borderopacity="0.25"
     inkscape:showpageshadow="2"
     inkscape:pageopacity="0.0"
     inkscape:pagecheckerboard="0"
     inkscape:deskcolor="#d1d1d1"
     inkscape:zoom="1.0730898"
     inkscape:cx="237.16561"
     inkscape:cy="183.11608"
     inkscape:window-width="1920"
     inkscape:window-height="991"
     inkscape:window-x="-9"
     inkscape:window-y="-9"
     inkscape:window-maximized="1"
     inkscape:current-layer="svg15" /><path
     fill="#ffffff"
     d="m 450.36951,63.069995 c -0.31362,1.989505 -0.26024,4.162605 0.16015,6.519305 0.2936,1.64235 0.05,3.15784 -0.73067,4.54649 -0.87413,1.5422 -1.41462,2.72055 -1.62147,3.53504 -1.92842,7.57748 -4.63088,14.54075 -8.10737,20.88981 -2.05521,3.7587 -4.09706,7.48402 -6.12557,11.17595 -1.06097,1.92274 -1.2111,4.31616 -1.22111,6.43919 -0.22687,74.30603 -0.30695,153.69265 -0.24022,238.15984 0.01,5.97854 -0.40036,11.68668 -1.7616,17.5851 -2.46224,10.6552 -8.43767,18.97708 -16.63512,26.57792 -8.74795,8.1049 -18.85714,13.44252 -30.32757,16.01285 -4.07704,0.91464 -10.65302,1.38197 -19.72794,1.402 -86.4686,0.20029 -173.56778,0.11016 -261.86805,0.18026 -7.173191,0.007 -14.756761,-0.12352 -22.750691,-0.39056 -14.8535,-0.50739 -27.99211,-5.78492 -39.415825,-15.83259 -4.931149,-4.33953 -9.215044,-9.29326 -12.851683,-14.86121 -3.816803,-5.84167 -6.255687,-12.49783 -7.316651,-19.96849 -0.09342,-0.67429 -0.273583,-0.69766 -0.540492,-0.0701 -3.930239,9.23985 -5.678495,18.94036 -5.244768,29.10153 0.05338,1.36862 0.874126,3.86552 2.462239,7.49069 0.306945,0.701 1.131028,2.01621 2.472247,3.94563 1.034274,1.48211 1.574765,2.99427 1.621474,4.53647 C 10.839949,398.93927 3.6233883,385.41998 1.0310323,370.86922 0.33706733,367.0037 -0.00657767,361.79627 9.5332515e-5,355.24692 0.11353133,264.59757 0.13354833,182.09652 0.06014533,107.74375 c -0.0067,-10.22793 0.09342,-19.43774 0.300273,-27.62943 C 0.56727333,72.02277 1.7583553,64.815821 3.9336663,58.493464 14.16297,28.741008 40.326754,5.217441 71.445039,0.981397 76.222719,0.333806 82.895449,0.01001 91.463239,0.01001 187.92426,0.01001 280.64522,0.00671 369.62611,0 c 11.32363,0 22.48711,2.647111 33.49044,7.941332 18.63027,8.966128 32.56628,22.518801 41.80801,40.658018 2.16864,4.246059 3.98362,9.069608 5.44495,14.470649 z"
     id="path11"
     style="display:inline;fill:#f9f167;fill-opacity:1;stroke-width:1.00117"
     sodipodi:nodetypes="scccccccccccccccccccccccccccscccss" /><path
     fill="#dadee3"
     d="m 450.36951,63.069995 q 2.45223,10.875525 2.3121,17.795395 c -0.40036,19.71814 0.03,39.47633 0.01,59.08431 q -0.1101,110.40755 -0.0701,220.8151 c 0,13.68953 -4.60419,25.79681 -11.97089,37.41339 q -15.01364,23.65375 -40.63694,34.94987 -8.92811,3.93561 -18.24658,5.51787 -6.40583,1.09156 -18.0364,1.06152 -135.95359,-0.32046 -274.959961,0.0501 c -6.68608,0.01 -13.80255,0.13018 -20.31847,-1.29185 q -28.50591,-6.25893 -47.853499,-28.42055 -0.07006,-2.3133 -1.621474,-4.53647 -2.011829,-2.89413 -2.472247,-3.94563 -2.382166,-5.43776 -2.462239,-7.49069 -0.650591,-15.24175 5.244768,-29.10153 0.400364,-0.94134 0.540492,0.0701 1.591446,11.20599 7.316651,19.96849 5.454959,8.35192 12.851683,14.86121 17.135575,15.07151 39.415825,15.83259 11.9909,0.40057 22.750691,0.39056 c 88.30027,-0.0701 175.39945,0.02 261.86805,-0.18026 q 13.61238,-0.03 19.72794,-1.402 17.20564,-3.8555 30.32757,-16.01285 c 8.19745,-7.60084 14.17288,-15.92272 16.63512,-26.57792 1.36124,-5.89842 1.77161,-11.60656 1.7616,-17.5851 q -0.10009,-126.70079 0.24022,-238.15984 c 0.01,-2.12303 0.16014,-4.51645 1.22111,-6.43919 q 3.04276,-5.5379 6.12557,-11.17595 5.21474,-9.52359 8.10737,-20.88981 0.31028,-1.22174 1.62147,-3.53504 1.17107,-2.08297 0.73067,-4.54649 -0.63058,-3.535047 -0.16015,-6.519305 z"
     id="path13"
     style="display:inline;fill:#c1b809;fill-opacity:1;stroke-width:1.00117" /><path
     style="display:none;fill:#ffffff;stroke:#000000;stroke-width:1.001"
     d="M 456.26522,439.76408 C 379.76147,428.48052 303.29795,415.39385 226.90164,402.96841 L 226.56762,219.88703 3.3251536e-7,0.009976 Z"
     id="path3"
     sodipodi:nodetypes="ccccc" /><path
     d="m 163.39397,350.6683 h 130.6 v -48.975 q 0,-26.93625 -19.18187,-46.11813 -19.18188,-19.18187 -46.11813,-19.18187 -26.93625,0 -46.11812,19.18187 -19.18188,19.18188 -19.18188,46.11813 z m -65.300001,32.65 v -32.65 h 32.650001 v -48.975 q 0,-24.89562 11.63156,-46.73031 11.63157,-21.83469 32.44594,-34.89469 -20.81437,-13.06 -32.44594,-34.89469 -11.63156,-21.83468 -11.63156,-46.73031 V 89.4683 H 98.093969 V 56.818301 H 359.29397 V 89.4683 h -32.65 v 48.975 q 0,24.89563 -11.63156,46.73031 -11.63156,21.83469 -32.44594,34.89469 20.81438,13.06 32.44594,34.89469 11.63156,21.83468 11.63156,46.73031 v 48.975 h 32.65 v 32.65 z"
     id="path1-7"
     style="display:inline;fill:#000000;fill-opacity:1;stroke-width:0.408125" /></svg>
